<svg width="128" height="40" viewBox="0 0 128 40" fill="none" xmlns="http://www.w3.org/2000/svg">
<rect width="128" height="40" rx="3" fill="#FFAE00"/>
<path d="M27.7344 29L26.8594 26.7344H20.0781L21.5156 22.625H25.2656L19.7188 8.26562H26.4531L34.7188 29H27.7344ZM11.5625 29L18.9688 9.20312L22.0312 17.4375L18.2344 29H11.5625ZM46.9531 29V16.5469H37.125V14.4844L39.2031 12.4062H49.5625L53.7031 16.5469V29H46.9531ZM38.5156 29L35.7344 26.2656V22.1094L38.5156 19.3438H45.8594V22.2188H42.2969V25.125H45.8594V26.9531L43.7969 29H38.5156ZM56.8281 29V6.07812H63.7344V29H56.8281ZM67.875 29V16.5469H64.8281V14.4531L66.8594 12.4062H70.6406L74.7969 16.5469V29H67.875ZM88.6406 29V16.5469H78.8125V14.4844L80.8906 12.4062H91.25L95.3906 16.5469V29H88.6406ZM80.2031 29L77.4219 26.2656V22.1094L80.2031 19.3438H87.5469V22.2188H83.9844V25.125H87.5469V26.9531L85.4844 29H80.2031ZM98.5156 29V12.4062H105.422V29H98.5156ZM109.469 20.5781V16.5469H106.531V14.7344L108.844 12.4062H113.031L116.391 16.2812V20.5781H109.469Z" fill="black"/>
</svg>
